SplineFontDB: 3.0
FontName: Untitled1
FullName: Untitled1
FamilyName: Untitled1
Weight: Book
Copyright: Copyright (c) 2016, Bianca
Version: 001.000
ItalicAngle: 0
UnderlinePosition: -153
UnderlineWidth: 51
Ascent: 819
Descent: 205
InvalidEm: 0
sfntRevision: 0x00010000
LayerCount: 2
Layer: 0 1 "Back" 1
Layer: 1 1 "Zeichen" 0
XUID: [1021 954 1933254697 10496]
StyleMap: 0x0000
FSType: 0
OS2Version: 4
OS2_WeightWidthSlopeOnly: 0
OS2_UseTypoMetrics: 1
CreationTime: 1469872617
ModificationTime: 1469888528
PfmFamily: 17
TTFWeight: 400
TTFWidth: 5
LineGap: 92
VLineGap: 0
Panose: 2 0 5 9 0 0 0 0 0 0
OS2TypoAscent: 819
OS2TypoAOffset: 0
OS2TypoDescent: -205
OS2TypoDOffset: 0
OS2TypoLinegap: 92
OS2WinAscent: 839
OS2WinAOffset: 0
OS2WinDescent: 15
OS2WinDOffset: 0
HheadAscent: 839
HheadAOffset: 0
HheadDescent: -15
HheadDOffset: 0
OS2SubXSize: 665
OS2SubYSize: 716
OS2SubXOff: 0
OS2SubYOff: 143
OS2SupXSize: 665
OS2SupYSize: 716
OS2SupXOff: 0
OS2SupYOff: 491
OS2StrikeYSize: 51
OS2StrikeYPos: 265
OS2CapHeight: 839
OS2XHeight: 731
OS2Vendor: 'PfEd'
OS2CodePages: 00000001.00000000
OS2UnicodeRanges: 00000001.00000000.00000000.00000000
MarkAttachClasses: 1
DEI: 91125
ShortTable: cvt  2
  34
  648
EndShort
ShortTable: maxp 16
  1
  0
  34
  38
  5
  0
  0
  2
  0
  1
  1
  0
  64
  46
  0
  0
EndShort
LangName: 1033 "" "" "Regular" "FontForge 2.0 : Untitled1 : 30-7-2016"
GaspTable: 1 65535 2 0
Encoding: UnicodeBmp
UnicodeInterp: none
NameList: AGL For New Fonts
DisplaySize: -48
AntiAlias: 1
FitToEm: 0
WinInfo: 0 21 10
BeginChars: 65539 35

StartChar: .notdef
Encoding: 65536 -1 0
Width: 1024
Flags: W
LayerCount: 2
Fore
SplineSet
34 0 m 1,0,-1
 34 682 l 1,1,-1
 306 682 l 1,2,-1
 306 0 l 1,3,-1
 34 0 l 1,0,-1
68 34 m 1,4,-1
 272 34 l 1,5,-1
 272 648 l 1,6,-1
 68 648 l 1,7,-1
 68 34 l 1,4,-1
EndSplineSet
Validated: 1
EndChar

StartChar: A
Encoding: 65 65 3
Width: 1024
Flags: W
LayerCount: 2
Fore
SplineSet
-18 839 m 1,0,-1
 1038 839 l 1,1,-1
 1038 -15 l 1,2,-1
 -18 -15 l 1,3,-1
 -18 839 l 1,0,-1
20 795 m 1,4,-1
 20 24 l 1,5,-1
 1004 24 l 1,6,-1
 1004 795 l 1,7,-1
 20 795 l 1,4,-1
187 436 m 1,8,-1
 837 436 l 1,9,-1
 837 383 l 1,10,-1
 187 383 l 1,11,-1
 187 436 l 1,8,-1
EndSplineSet
Validated: 1
EndChar

StartChar: B
Encoding: 66 66 4
Width: 1024
Flags: W
LayerCount: 2
Fore
SplineSet
-18 839 m 1,0,-1
 1038 839 l 1,1,-1
 1038 -15 l 1,2,-1
 -18 -15 l 1,3,-1
 -18 839 l 1,0,-1
20 795 m 1,4,-1
 20 24 l 1,5,-1
 1004 24 l 1,6,-1
 1004 795 l 1,7,-1
 20 795 l 1,4,-1
487 745 m 1,8,-1
 553 745 l 1,9,-1
 555 82 l 1,10,-1
 489 82 l 1,11,-1
 487 745 l 1,8,-1
EndSplineSet
Validated: 1
EndChar

StartChar: C
Encoding: 67 67 5
Width: 1024
Flags: W
LayerCount: 2
Fore
SplineSet
-18 839 m 1,0,-1
 1038 839 l 1,1,-1
 1038 -15 l 1,2,-1
 -18 -15 l 1,3,-1
 -18 839 l 1,0,-1
20 795 m 1,4,-1
 20 24 l 1,5,-1
 1004 24 l 1,6,-1
 1004 795 l 1,7,-1
 20 795 l 1,4,-1
188 397 m 1,8,9
 188 521 188 521 284 605.5 c 128,-1,10
 380 690 380 690 514 690 c 0,11,12
 646 690 646 690 737.5 604.5 c 128,-1,13
 829 519 829 519 829 398 c 1,14,-1
 786 399 l 1,15,16
 786 503 786 503 704.5 562 c 128,-1,17
 623 621 623 621 512 621 c 0,18,19
 400 621 400 621 318 562 c 128,-1,20
 236 503 236 503 236 398 c 1,21,-1
 188 397 l 1,8,9
188 307 m 1,22,-1
 838 307 l 1,23,-1
 838 254 l 1,24,-1
 188 254 l 1,25,-1
 188 307 l 1,22,-1
EndSplineSet
Validated: 1
EndChar

StartChar: D
Encoding: 68 68 6
Width: 1024
Flags: W
LayerCount: 2
Fore
SplineSet
-18 839 m 1,0,-1
 1038 839 l 1,1,-1
 1038 -15 l 1,2,-1
 -18 -15 l 1,3,-1
 -18 839 l 1,0,-1
20 795 m 1,4,-1
 20 24 l 1,5,-1
 1004 24 l 1,6,-1
 1004 795 l 1,7,-1
 20 795 l 1,4,-1
180 499 m 1,8,9
 180 583 180 583 227.5 644.5 c 128,-1,10
 275 706 275 706 346 734 c 128,-1,11
 417 762 417 762 500 762 c 0,12,13
 631 762 631 762 726 692.5 c 128,-1,14
 821 623 821 623 821 500 c 1,15,-1
 778 501 l 1,16,17
 778 599 778 599 696.5 654 c 128,-1,18
 615 709 615 709 503 709 c 128,-1,19
 391 709 391 709 309 654.5 c 128,-1,20
 227 600 227 600 227 503 c 2,21,-1
 227 500 l 1,22,-1
 180 499 l 1,8,9
479 104 m 1,23,-1
 481 500 l 1,24,-1
 541 500 l 1,25,-1
 539 104 l 1,26,-1
 479 104 l 1,23,-1
EndSplineSet
Validated: 1
EndChar

StartChar: E
Encoding: 69 69 7
Width: 1024
Flags: W
LayerCount: 2
Fore
SplineSet
20 795 m 1,0,-1
 20 24 l 1,1,-1
 1004 24 l 1,2,-1
 1004 795 l 1,3,-1
 20 795 l 1,0,-1
-18 839 m 1,4,-1
 1038 839 l 1,5,-1
 1038 -15 l 1,6,-1
 -18 -15 l 1,7,-1
 -18 839 l 1,4,-1
768 579 m 1,8,-1
 768 262 l 1,9,-1
 719 262 l 1,10,-1
 717 388 l 1,11,-1
 251 388 l 1,12,-1
 251 436 l 1,13,-1
 717 436 l 1,14,-1
 715 579 l 1,15,-1
 768 579 l 1,8,-1
EndSplineSet
Validated: 1
EndChar

StartChar: F
Encoding: 70 70 8
Width: 1024
Flags: W
LayerCount: 2
Fore
SplineSet
-18 839 m 1,0,-1
 1038 839 l 1,1,-1
 1038 -15 l 1,2,-1
 -18 -15 l 1,3,-1
 -18 839 l 1,0,-1
20 795 m 1,4,-1
 20 24 l 1,5,-1
 1004 24 l 1,6,-1
 1004 795 l 1,7,-1
 20 795 l 1,4,-1
326 579 m 1,8,-1
 379 579 l 1,9,-1
 377 436 l 1,10,-1
 843 436 l 1,11,-1
 843 388 l 1,12,-1
 377 388 l 1,13,-1
 375 262 l 1,14,-1
 326 262 l 1,15,-1
 326 579 l 1,8,-1
EndSplineSet
Validated: 1
EndChar

StartChar: G
Encoding: 71 71 9
Width: 1024
Flags: W
LayerCount: 2
Fore
SplineSet
-18 839 m 1,0,-1
 1038 839 l 1,1,-1
 1038 -15 l 1,2,-1
 -18 -15 l 1,3,-1
 -18 839 l 1,0,-1
20 795 m 1,4,-1
 20 24 l 1,5,-1
 1004 24 l 1,6,-1
 1004 795 l 1,7,-1
 20 795 l 1,4,-1
114 84 m 1,8,-1
 830 731 l 1,9,-1
 931 721 l 1,10,-1
 206 80 l 1,11,-1
 114 84 l 1,8,-1
EndSplineSet
Validated: 1
EndChar

StartChar: H
Encoding: 72 72 10
Width: 1024
Flags: W
LayerCount: 2
Fore
SplineSet
-18 839 m 1,0,-1
 1038 839 l 1,1,-1
 1038 -15 l 1,2,-1
 -18 -15 l 1,3,-1
 -18 839 l 1,0,-1
20 795 m 1,4,-1
 20 24 l 1,5,-1
 1004 24 l 1,6,-1
 1004 795 l 1,7,-1
 20 795 l 1,4,-1
128 717 m 1,8,-1
 234 715 l 1,9,-1
 896 115 l 1,10,-1
 783 115 l 1,11,-1
 128 717 l 1,8,-1
EndSplineSet
Validated: 1
EndChar

StartChar: I
Encoding: 73 73 11
Width: 1024
Flags: W
LayerCount: 2
Fore
SplineSet
20 795 m 1,0,-1
 20 24 l 1,1,-1
 1004 24 l 1,2,-1
 1004 795 l 1,3,-1
 20 795 l 1,0,-1
-18 839 m 1,4,-1
 1038 839 l 1,5,-1
 1038 -15 l 1,6,-1
 -18 -15 l 1,7,-1
 -18 839 l 1,4,-1
549 457 m 1,8,-1
 855 457 l 1,9,-1
 855 389 l 1,10,-1
 549 389 l 1,11,-1
 549 83 l 1,12,-1
 481 83 l 1,13,-1
 481 389 l 1,14,-1
 175 389 l 1,15,-1
 175 457 l 1,16,-1
 481 457 l 1,17,-1
 481 763 l 1,18,-1
 549 763 l 1,19,-1
 549 457 l 1,8,-1
EndSplineSet
Validated: 1
EndChar

StartChar: J
Encoding: 74 74 12
Width: 1024
Flags: W
LayerCount: 2
Fore
SplineSet
-18 839 m 1,0,-1
 1038 839 l 1,1,-1
 1038 -15 l 1,2,-1
 -18 -15 l 1,3,-1
 -18 839 l 1,0,-1
20 795 m 1,4,-1
 20 24 l 1,5,-1
 1004 24 l 1,6,-1
 1004 795 l 1,7,-1
 20 795 l 1,4,-1
128 92 m 1,8,-1
 142 752 l 1,9,-1
 205 752 l 1,10,-1
 441 574 l 1,11,-1
 441 768 l 1,12,-1
 501 768 l 1,13,-1
 502 578 l 1,14,-1
 741 745 l 1,15,-1
 814 748 l 1,16,-1
 814 96 l 1,17,-1
 754 98 l 1,18,-1
 745 641 l 1,19,-1
 501 465 l 1,20,-1
 501 90 l 1,21,-1
 441 90 l 1,22,-1
 441 465 l 1,23,-1
 209 649 l 1,24,-1
 197 90 l 1,25,-1
 128 92 l 1,8,-1
EndSplineSet
Validated: 1
EndChar

StartChar: K
Encoding: 75 75 13
Width: 1024
Flags: W
LayerCount: 2
Fore
SplineSet
-18 839 m 1,0,-1
 1038 839 l 1,1,-1
 1038 -15 l 1,2,-1
 -18 -15 l 1,3,-1
 -18 839 l 1,0,-1
20 795 m 1,4,-1
 20 24 l 1,5,-1
 1004 24 l 1,6,-1
 1004 795 l 1,7,-1
 20 795 l 1,4,-1
135 94 m 1,8,-1
 135 432 l 1,9,-1
 43 432 l 1,10,-1
 43 484 l 1,11,-1
 135 484 l 1,12,-1
 135 749 l 1,13,-1
 203 749 l 1,14,-1
 442 573 l 1,15,-1
 442 572 l 1,16,-1
 690 748 l 1,17,-1
 757 748 l 1,18,-1
 757 484 l 1,19,-1
 938 484 l 1,20,-1
 938 432 l 1,21,-1
 757 432 l 1,22,-1
 757 93 l 1,23,-1
 690 93 l 1,24,-1
 690 432 l 1,25,-1
 203 432 l 1,26,-1
 203 94 l 1,27,-1
 135 94 l 1,8,-1
203 484 m 1,28,-1
 417 484 l 1,29,-1
 203 645 l 1,30,-1
 203 484 l 1,28,-1
471 484 m 1,31,-1
 690 484 l 1,32,-1
 690 644 l 1,33,-1
 471 484 l 1,31,-1
EndSplineSet
Validated: 1
EndChar

StartChar: L
Encoding: 76 76 14
Width: 1024
Flags: W
LayerCount: 2
Fore
SplineSet
-18 839 m 1,0,-1
 1038 839 l 1,1,-1
 1038 -15 l 1,2,-1
 -18 -15 l 1,3,-1
 -18 839 l 1,0,-1
20 795 m 1,4,-1
 20 24 l 1,5,-1
 1004 24 l 1,6,-1
 1004 795 l 1,7,-1
 20 795 l 1,4,-1
142 406 m 128,-1,9
 142 555 142 555 248 660.5 c 128,-1,10
 354 766 354 766 503 766 c 128,-1,11
 652 766 652 766 757.5 660.5 c 128,-1,12
 863 555 863 555 863 406 c 128,-1,13
 863 257 863 257 757.5 151.5 c 128,-1,14
 652 46 652 46 503 46 c 128,-1,15
 354 46 354 46 248 151.5 c 128,-1,8
 142 257 142 257 142 406 c 128,-1,9
216 404 m 128,-1,17
 216 286 216 286 300 202 c 128,-1,18
 384 118 384 118 502 118 c 128,-1,19
 620 118 620 118 703.5 201.5 c 128,-1,20
 787 285 787 285 787 404 c 0,21,22
 787 522 787 522 703.5 606 c 128,-1,23
 620 690 620 690 502 690 c 128,-1,24
 384 690 384 690 300 606 c 128,-1,16
 216 522 216 522 216 404 c 128,-1,17
EndSplineSet
Validated: 1
EndChar

StartChar: M
Encoding: 77 77 15
Width: 1024
Flags: W
LayerCount: 2
Fore
SplineSet
-18 839 m 1,0,-1
 1038 839 l 1,1,-1
 1038 -15 l 1,2,-1
 -18 -15 l 1,3,-1
 -18 839 l 1,0,-1
20 795 m 1,4,-1
 20 24 l 1,5,-1
 1004 24 l 1,6,-1
 1004 795 l 1,7,-1
 20 795 l 1,4,-1
806 731 m 1,8,-1
 878 731 l 1,9,-1
 878 68 l 1,10,-1
 806 68 l 1,11,-1
 806 625 l 1,12,-1
 220 68 l 1,13,-1
 124 68 l 1,14,-1
 806 731 l 1,8,-1
EndSplineSet
Validated: 1
EndChar

StartChar: N
Encoding: 78 78 16
Width: 1024
Flags: W
LayerCount: 2
Fore
SplineSet
-18 839 m 1,0,-1
 1038 839 l 1,1,-1
 1038 -15 l 1,2,-1
 -18 -15 l 1,3,-1
 -18 839 l 1,0,-1
20 795 m 1,4,-1
 20 24 l 1,5,-1
 1004 24 l 1,6,-1
 1004 795 l 1,7,-1
 20 795 l 1,4,-1
218 731 m 1,8,-1
 900 68 l 1,9,-1
 804 68 l 1,10,-1
 218 625 l 1,11,-1
 218 68 l 1,12,-1
 146 68 l 1,13,-1
 146 731 l 1,14,-1
 218 731 l 1,8,-1
EndSplineSet
Validated: 1
EndChar

StartChar: O
Encoding: 79 79 17
Width: 1024
Flags: W
LayerCount: 2
Fore
SplineSet
-18 839 m 1,0,-1
 1038 839 l 1,1,-1
 1038 -15 l 1,2,-1
 -18 -15 l 1,3,-1
 -18 839 l 1,0,-1
20 795 m 1,4,-1
 20 24 l 1,5,-1
 1004 24 l 1,6,-1
 1004 795 l 1,7,-1
 20 795 l 1,4,-1
762 716 m 1,8,-1
 823 714 l 1,9,-1
 823 695 l 2,10,11
 823 397 823 397 746 237 c 128,-1,12
 669 77 669 77 513 77 c 0,13,14
 437 77 437 77 381 105 c 128,-1,15
 325 133 325 133 289.5 183.5 c 128,-1,16
 254 234 254 234 233 316 c 128,-1,17
 212 398 212 398 204 493.5 c 128,-1,18
 196 589 196 589 196 720 c 1,19,-1
 265 720 l 1,20,21
 265 670 265 670 265.5 639.5 c 128,-1,22
 266 609 266 609 268.5 551.5 c 128,-1,23
 271 494 271 494 278 455.5 c 128,-1,24
 285 417 285 417 295.5 366 c 128,-1,25
 306 315 306 315 324 281 c 128,-1,26
 342 247 342 247 366.5 215.5 c 128,-1,27
 391 184 391 184 426.5 168.5 c 128,-1,28
 462 153 462 153 505 153 c 2,29,-1
 507 153 l 2,30,31
 557 153 557 153 597.5 179 c 128,-1,32
 638 205 638 205 664 244 c 128,-1,33
 690 283 690 283 709.5 338.5 c 128,-1,34
 729 394 729 394 738.5 444.5 c 128,-1,35
 748 495 748 495 754 553.5 c 128,-1,36
 760 612 760 612 761 646.5 c 128,-1,37
 762 681 762 681 762 716 c 1,8,-1
EndSplineSet
Validated: 1
EndChar

StartChar: Z
Encoding: 90 90 18
Width: 1024
Flags: W
LayerCount: 2
Fore
SplineSet
-18 839 m 1,0,-1
 1038 839 l 1,1,-1
 1038 -15 l 1,2,-1
 -18 -15 l 1,3,-1
 -18 839 l 1,0,-1
20 795 m 1,4,-1
 20 24 l 1,5,-1
 1004 24 l 1,6,-1
 1004 795 l 1,7,-1
 20 795 l 1,4,-1
EndSplineSet
Validated: 1
EndChar

StartChar: a
Encoding: 97 97 19
Width: 1024
Flags: W
LayerCount: 2
Fore
SplineSet
187 436 m 1,0,-1
 837 436 l 1,1,-1
 837 383 l 1,2,-1
 187 383 l 1,3,-1
 187 436 l 1,0,-1
EndSplineSet
Validated: 1
EndChar

StartChar: b
Encoding: 98 98 20
Width: 1024
Flags: W
LayerCount: 2
Fore
SplineSet
487 745 m 1,0,-1
 553 745 l 1,1,-1
 555 82 l 1,2,-1
 489 82 l 1,3,-1
 487 745 l 1,0,-1
EndSplineSet
Validated: 1
EndChar

StartChar: c
Encoding: 99 99 21
Width: 1024
Flags: W
LayerCount: 2
Fore
SplineSet
188 397 m 1,0,1
 188 521 188 521 284 605.5 c 128,-1,2
 380 690 380 690 514 690 c 0,3,4
 646 690 646 690 737.5 604.5 c 128,-1,5
 829 519 829 519 829 398 c 1,6,-1
 786 399 l 1,7,8
 786 503 786 503 704.5 562 c 128,-1,9
 623 621 623 621 512 621 c 0,10,11
 400 621 400 621 318 562 c 128,-1,12
 236 503 236 503 236 398 c 1,13,-1
 188 397 l 1,0,1
188 307 m 1,14,-1
 838 307 l 1,15,-1
 838 254 l 1,16,-1
 188 254 l 1,17,-1
 188 307 l 1,14,-1
EndSplineSet
Validated: 1
EndChar

StartChar: d
Encoding: 100 100 22
Width: 1024
Flags: W
LayerCount: 2
Fore
SplineSet
180 499 m 1,0,1
 180 583 180 583 227.5 644.5 c 128,-1,2
 275 706 275 706 346 734 c 128,-1,3
 417 762 417 762 500 762 c 0,4,5
 631 762 631 762 726 692.5 c 128,-1,6
 821 623 821 623 821 500 c 1,7,-1
 778 501 l 1,8,9
 778 599 778 599 696.5 654 c 128,-1,10
 615 709 615 709 503 709 c 0,11,12
 392 709 392 709 309.5 654.5 c 128,-1,13
 227 600 227 600 227 503 c 2,14,-1
 227 500 l 1,15,-1
 180 499 l 1,0,1
479 104 m 1,16,-1
 481 500 l 1,17,-1
 541 500 l 1,18,-1
 539 104 l 1,19,-1
 479 104 l 1,16,-1
EndSplineSet
Validated: 1
EndChar

StartChar: e
Encoding: 101 101 23
Width: 1024
Flags: W
LayerCount: 2
Fore
SplineSet
768 579 m 1,0,-1
 768 262 l 1,1,-1
 719 262 l 1,2,-1
 717 388 l 1,3,-1
 251 388 l 1,4,-1
 251 436 l 1,5,-1
 717 436 l 1,6,-1
 715 579 l 1,7,-1
 768 579 l 1,0,-1
EndSplineSet
Validated: 1
EndChar

StartChar: f
Encoding: 102 102 24
Width: 1024
Flags: W
LayerCount: 2
Fore
SplineSet
326 579 m 1,0,-1
 379 579 l 1,1,-1
 377 436 l 1,2,-1
 843 436 l 1,3,-1
 843 388 l 1,4,-1
 377 388 l 1,5,-1
 375 262 l 1,6,-1
 326 262 l 1,7,-1
 326 579 l 1,0,-1
EndSplineSet
Validated: 1
EndChar

StartChar: g
Encoding: 103 103 25
Width: 1024
Flags: W
LayerCount: 2
Fore
SplineSet
114 84 m 1,0,-1
 830 731 l 1,1,-1
 931 721 l 1,2,-1
 206 80 l 1,3,-1
 114 84 l 1,0,-1
EndSplineSet
Validated: 1
EndChar

StartChar: h
Encoding: 104 104 26
Width: 1024
Flags: W
LayerCount: 2
Fore
SplineSet
128 717 m 1,0,-1
 234 715 l 1,1,-1
 896 115 l 1,2,-1
 783 115 l 1,3,-1
 128 717 l 1,0,-1
EndSplineSet
Validated: 1
EndChar

StartChar: i
Encoding: 105 105 27
Width: 1024
Flags: W
LayerCount: 2
Fore
SplineSet
549 457 m 1,0,-1
 855 457 l 1,1,-1
 855 389 l 1,2,-1
 549 389 l 1,3,-1
 549 83 l 1,4,-1
 481 83 l 1,5,-1
 481 389 l 1,6,-1
 175 389 l 1,7,-1
 175 457 l 1,8,-1
 481 457 l 1,9,-1
 481 763 l 1,10,-1
 549 763 l 1,11,-1
 549 457 l 1,0,-1
EndSplineSet
Validated: 1
EndChar

StartChar: j
Encoding: 106 106 28
Width: 1024
Flags: W
LayerCount: 2
Fore
SplineSet
128 92 m 1,0,-1
 142 752 l 1,1,-1
 205 752 l 1,2,-1
 441 574 l 1,3,-1
 441 768 l 1,4,-1
 501 768 l 1,5,-1
 502 578 l 1,6,-1
 741 745 l 1,7,-1
 814 748 l 1,8,-1
 814 96 l 1,9,-1
 754 98 l 1,10,-1
 745 641 l 1,11,-1
 501 465 l 1,12,-1
 501 90 l 1,13,-1
 441 90 l 1,14,-1
 441 465 l 1,15,-1
 209 649 l 1,16,-1
 197 90 l 1,17,-1
 128 92 l 1,0,-1
EndSplineSet
Validated: 1
EndChar

StartChar: k
Encoding: 107 107 29
Width: 1024
Flags: W
LayerCount: 2
Fore
SplineSet
135 94 m 1,0,-1
 135 432 l 1,1,-1
 43 432 l 1,2,-1
 43 484 l 1,3,-1
 135 484 l 1,4,-1
 135 749 l 1,5,-1
 203 749 l 1,6,-1
 442 573 l 1,7,-1
 442 572 l 1,8,-1
 690 748 l 1,9,-1
 757 748 l 1,10,-1
 757 484 l 1,11,-1
 938 484 l 1,12,-1
 938 432 l 1,13,-1
 757 432 l 1,14,-1
 757 93 l 1,15,-1
 690 93 l 1,16,-1
 690 432 l 1,17,-1
 203 432 l 1,18,-1
 203 94 l 1,19,-1
 135 94 l 1,0,-1
203 484 m 1,20,-1
 417 484 l 1,21,-1
 203 645 l 1,22,-1
 203 484 l 1,20,-1
471 484 m 1,23,-1
 690 484 l 1,24,-1
 690 644 l 1,25,-1
 471 484 l 1,23,-1
EndSplineSet
Validated: 1
EndChar

StartChar: l
Encoding: 108 108 30
Width: 1024
Flags: W
LayerCount: 2
Fore
SplineSet
142 406 m 128,-1,1
 142 555 142 555 248 660.5 c 128,-1,2
 354 766 354 766 503 766 c 128,-1,3
 652 766 652 766 757.5 660.5 c 128,-1,4
 863 555 863 555 863 406 c 128,-1,5
 863 257 863 257 757.5 151.5 c 128,-1,6
 652 46 652 46 503 46 c 128,-1,7
 354 46 354 46 248 151.5 c 128,-1,0
 142 257 142 257 142 406 c 128,-1,1
216 404 m 128,-1,9
 216 286 216 286 300 202 c 128,-1,10
 384 118 384 118 502 118 c 128,-1,11
 620 118 620 118 703.5 201.5 c 128,-1,12
 787 285 787 285 787 404 c 0,13,14
 787 522 787 522 703.5 606 c 128,-1,15
 620 690 620 690 502 690 c 128,-1,16
 384 690 384 690 300 606 c 128,-1,8
 216 522 216 522 216 404 c 128,-1,9
EndSplineSet
Validated: 1
EndChar

StartChar: m
Encoding: 109 109 31
Width: 1024
Flags: W
LayerCount: 2
Fore
SplineSet
806 731 m 1,0,-1
 878 731 l 1,1,-1
 878 68 l 1,2,-1
 806 68 l 1,3,-1
 806 625 l 1,4,-1
 220 68 l 1,5,-1
 124 68 l 1,6,-1
 806 731 l 1,0,-1
EndSplineSet
Validated: 1
EndChar

StartChar: n
Encoding: 110 110 32
Width: 1024
Flags: W
LayerCount: 2
Fore
SplineSet
218 731 m 1,0,-1
 900 68 l 1,1,-1
 804 68 l 1,2,-1
 218 625 l 1,3,-1
 218 68 l 1,4,-1
 146 68 l 1,5,-1
 146 731 l 1,6,-1
 218 731 l 1,0,-1
EndSplineSet
Validated: 1
EndChar

StartChar: o
Encoding: 111 111 33
Width: 1024
Flags: W
LayerCount: 2
Fore
SplineSet
762 716 m 1,0,1
 762 716 762 716 823 714 c 1,2,-1
 823 695 l 2,3,4
 823 397 823 397 746 237 c 128,-1,5
 669 77 669 77 513 77 c 0,6,7
 437 77 437 77 381 105 c 128,-1,8
 325 133 325 133 289.5 183.5 c 128,-1,9
 254 234 254 234 233 316 c 128,-1,10
 212 398 212 398 204 493.5 c 128,-1,11
 196 589 196 589 196 720 c 1,12,-1
 265 720 l 1,13,14
 265 670 265 670 265.5 639.5 c 128,-1,15
 266 609 266 609 268.5 551.5 c 128,-1,16
 271 494 271 494 278 455.5 c 128,-1,17
 285 417 285 417 295.5 366 c 128,-1,18
 306 315 306 315 324 281 c 128,-1,19
 342 247 342 247 366.5 215.5 c 128,-1,20
 391 184 391 184 426.5 168.5 c 128,-1,21
 462 153 462 153 505 153 c 2,22,-1
 507 153 l 2,23,24
 557 153 557 153 597.5 179 c 128,-1,25
 638 205 638 205 664 244 c 128,-1,26
 690 283 690 283 709.5 338.5 c 128,-1,27
 729 394 729 394 738.5 444.5 c 128,-1,28
 748 495 748 495 754 553.5 c 128,-1,29
 760 612 760 612 761 646.5 c 128,-1,30
 762 681 762 681 762 716 c 1,0,1
EndSplineSet
Validated: 1
EndChar

StartChar: z
Encoding: 122 122 34
Width: 1024
VWidth: 0
LayerCount: 2
Fore
SplineSet
197 645 m 1053,0,-1
EndSplineSet
Validated: 1
EndChar
